<?xml version="1.0" encoding="iso-8859-1"?>
<!-- Generator: Adobe Illustrator 19.0.0, SVG Export Plug-In . SVG Version: 6.00 Build 0)  -->
<svg xmlns="http://www.w3.org/2000/svg" xmlns:xlink="http://www.w3.org/1999/xlink" version="1.1" id="Layer_1" x="0px" y="0px" viewBox="0 0 511.998 511.998" style="enable-background:new 0 0 511.998 511.998;" xml:space="preserve" width="512px" height="512px">
<g>
	<g>
		<path d="M271.743,66.789c-10.254-33.307-43.986-54.637-78.466-49.618c-27.965,4.072-50.749,24.134-58.531,50.819    c-18.496-20.709-47.672-29.003-74.64-20.666C26.524,57.707,5.277,91.74,10.686,126.489c3.142,20.178,14.737,38.081,31.82,49.145    l101.883,70.503c6.839,4.733,14.949,7.214,23.152,7.214c2.992,0,5.998-0.331,8.957-1.002c11.07-2.512,20.651-9.606,26.283-19.463    l60.199-105.342C274.913,109.585,278.109,87.461,271.743,66.789z M247.937,117.847c-0.121,0.178-0.233,0.36-0.339,0.546    l-60.354,105.613c-3.198,5.596-8.42,9.463-14.705,10.889c-6.288,1.426-12.665,0.191-17.965-3.476L52.577,160.836    c-0.08-0.055-0.162-0.11-0.243-0.163c-12.864-8.29-21.597-21.753-23.96-36.936c-4.056-26.036,11.861-51.535,37.019-59.312    c5.25-1.623,10.61-2.407,15.913-2.407c16.773,0,32.971,7.844,43.253,21.782c3.461,4.693,9.363,6.892,15.039,5.609    c5.677-1.285,10.057-5.818,11.157-11.543c4.313-22.411,22.44-39.685,45.103-42.985c25.819-3.757,51.1,12.219,58.781,37.173    C259.442,87.651,256.999,104.342,247.937,117.847z" fill="#8c9296"/>
	</g>
</g>
<g>
	<g>
		<path d="M468.195,71.745c-21.232-5.39-43.451,1.583-57.767,17.485c-8.17-19.75-26.754-33.746-48.537-35.784    c-28.505-2.671-55.106,16.306-61.879,44.135c-3.93,16.146-0.799,33.219,8.587,46.87l52.848,82.032    c5.132,7.964,13.43,13.452,22.768,15.055c1.897,0.326,3.805,0.486,5.707,0.486c7.462,0,14.806-2.466,20.777-7.085l23.336-18.054    c3.917,16.214,5.905,32.896,5.905,49.754c0,116.359-94.664,211.022-211.022,211.022S17.897,382.995,17.897,266.637    c0-8.281,0.484-16.621,1.439-24.788c0.574-4.909-2.94-9.353-7.849-9.927c-4.904-0.576-9.353,2.939-9.927,7.849    C0.524,248.625,0,257.665,0,266.637c0,126.227,102.692,228.919,228.918,228.919c126.227,0,228.919-102.692,228.919-228.919    c0-20.957-2.834-41.669-8.413-61.66l36.827-28.493c14.547-9.789,23.833-25.417,25.492-42.93    C514.423,105.299,495.701,78.726,468.195,71.745z M493.927,131.866c-1.159,12.228-7.668,23.125-17.859,29.899    c-0.179,0.119-0.353,0.243-0.523,0.375L399.75,220.78c-3.593,2.779-8.036,3.883-12.504,3.117    c-4.474-0.768-8.292-3.293-10.752-7.109l-52.922-82.152c-0.052-0.082-0.107-0.163-0.163-0.245    c-6.647-9.611-8.779-21.181-6.005-32.581c4.394-18.053,20.839-30.722,39.125-30.722c1.223,0,2.459,0.056,3.696,0.173    c17.141,1.605,31.424,13.871,35.542,30.522c1.284,5.191,5.512,9.131,10.775,10.038c5.263,0.901,10.564-1.395,13.508-5.86    c9.458-14.332,27.034-21.113,43.744-16.874C482.826,93.922,495.781,112.312,493.927,131.866z" fill="#8c9296"/>
	</g>
</g>
<g>
	<g>
		<path d="M368.4,317.544H190.319c-4.943,0-8.949,4.007-8.949,8.949c0,54.031,43.957,97.989,97.989,97.989    s97.99-43.957,97.99-97.989C377.349,321.55,373.344,317.544,368.4,317.544z M279.359,406.584    c-41.139,0-75.132-31.175-79.595-71.142h159.191C354.493,375.409,320.498,406.584,279.359,406.584z" fill="#8c9296"/>
	</g>
</g>
<g>
	<g>
		<circle cx="291.884" cy="55.615" r="8.949" fill="#8c9296"/>
	</g>
</g>
<g>
	<g>
		<circle cx="16.389" cy="210.986" r="8.949" fill="#8c9296"/>
	</g>
</g>
<g>
</g>
<g>
</g>
<g>
</g>
<g>
</g>
<g>
</g>
<g>
</g>
<g>
</g>
<g>
</g>
<g>
</g>
<g>
</g>
<g>
</g>
<g>
</g>
<g>
</g>
<g>
</g>
<g>
</g>
</svg>
